<svg width="29" height="34" viewBox="0 0 29 34" fill="none" xmlns="http://www.w3.org/2000/svg">
<path fill-rule="evenodd" clip-rule="evenodd" d="M9.93136 7.05239L13.8366 3.15121V12.7938C13.8366 13.1575 14.1294 13.4514 14.496 13.4514C14.8627 13.4514 15.1554 13.1575 15.1554 12.7938V3.18648L19.0511 7.07811C19.1883 7.21511 19.3605 7.27935 19.5095 7.27935C19.6585 7.27935 19.8307 7.21511 19.9679 7.07811C20.2124 6.83387 20.2124 6.40954 19.9679 6.16531L14.9544 1.1571C14.7574 0.960285 14.2882 0.930738 14.025 1.16972L9.02419 6.16531C8.78273 6.40651 8.77974 6.82338 9.01521 7.06894C9.30675 7.33567 9.69031 7.30657 9.92207 7.06219L9.93136 7.05239ZM8.31745 7.78559C7.68194 7.15074 7.68194 6.09267 8.31745 5.45783L13.3309 0.44962C13.9664 -0.149955 15.0609 -0.149955 15.6611 0.44962L20.6746 5.45783C21.3101 6.09267 21.3101 7.15074 20.6746 7.78559C20.3568 8.10301 19.9332 8.27935 19.5095 8.27935C19.0858 8.27935 18.6622 8.10301 18.3444 7.78559L16.1554 5.5989V12.7938C16.1554 13.7108 15.414 14.4514 14.496 14.4514C13.5781 14.4514 12.8366 13.7108 12.8366 12.7938V5.56363L10.6477 7.75032C10.0121 8.42043 8.98827 8.42043 8.31745 7.78559Z" fill="#999999"/>
<path fill-rule="evenodd" clip-rule="evenodd" d="M21.0479 13.3754L21.0489 13.3766L25.6449 18.2378H3.34863L7.94567 13.3754C8.19182 13.1159 8.18907 12.7327 7.92346 12.4719C7.62918 12.2181 7.23264 12.2467 6.99754 12.4929L6.17748 13.3676C5.68157 13.8966 5.01634 14.6063 4.33898 15.3292C2.98061 16.779 1.58311 18.2716 1.39357 18.4782L1.37888 18.4942L1.36351 18.5096C1.27262 18.6004 1.14741 18.7773 1.06878 18.9885C0.990701 19.1983 0.987558 19.3604 1.01801 19.4669L1.02001 19.4739L4.33762 31.7432C4.46648 32.1716 4.85944 32.4616 5.28187 32.4616H23.7117C24.1341 32.4616 24.527 32.1717 24.6559 31.7433L27.9735 19.4739L27.9755 19.4669C28.0491 19.2097 27.9514 18.8563 27.6043 18.4829C27.3765 18.2378 25.9752 16.7411 24.6279 15.3026L22.0081 12.5058L21.9975 12.4945C21.7359 12.2186 21.3441 12.2125 21.0803 12.4621C20.8046 12.723 20.7986 13.1126 21.0479 13.3754ZM22.7231 11.8063C22.0876 11.1362 21.0637 11.101 20.3929 11.7358C19.7221 12.3707 19.6868 13.3935 20.3223 14.0636L23.3233 17.2378H5.67024L8.67126 14.0636C9.30677 13.3935 9.27147 12.3707 8.60065 11.7358C7.92983 11.1362 6.90596 11.1362 6.27045 11.8063C6.27045 11.8063 1.04514 17.3789 0.65677 17.8021C0.268403 18.19 -0.155271 19.0012 0.0565659 19.7419L3.37534 32.0155C3.62249 32.862 4.39922 33.4616 5.28187 33.4616H23.7117C24.5943 33.4616 25.3711 32.862 25.6182 32.0155L28.937 19.7419C29.1488 19.0012 28.7958 18.2959 28.3368 17.8021C27.8778 17.3083 22.7231 11.8063 22.7231 11.8063ZM10.8364 28.2417C10.8364 29.3946 9.89337 30.3351 8.74187 30.3351C7.59038 30.3351 6.64738 29.3946 6.64738 28.2417V22.4929C6.64738 21.34 7.59038 20.3995 8.74187 20.3995C9.89338 20.3995 10.8364 21.34 10.8364 22.4929V28.2417ZM16.5913 28.2417C16.5913 29.3946 15.6483 30.3351 14.4968 30.3351C13.3453 30.3351 12.4023 29.3946 12.4023 28.2417V22.4929C12.4023 21.34 13.3453 20.3995 14.4968 20.3995C15.6483 20.3995 16.5913 21.34 16.5913 22.4929V28.2417ZM22.3462 28.2417C22.3462 29.3946 21.4032 30.3351 20.2517 30.3351C19.1002 30.3351 18.1572 29.3946 18.1572 28.2417V22.4929C18.1572 21.34 19.1002 20.3995 20.2517 20.3995C21.4032 20.3995 22.3462 21.34 22.3462 22.4929V28.2417ZM8.74187 29.3351C9.34208 29.3351 9.83636 28.8413 9.83636 28.2417V22.4929C9.83636 21.8933 9.34208 21.3995 8.74187 21.3995C8.14167 21.3995 7.64738 21.8933 7.64738 22.4929V28.2417C7.64738 28.8413 8.14167 29.3351 8.74187 29.3351ZM14.4968 29.3351C15.097 29.3351 15.5913 28.8413 15.5913 28.2417V22.4929C15.5913 21.8933 15.097 21.3995 14.4968 21.3995C13.8966 21.3995 13.4023 21.8933 13.4023 22.4929V28.2417C13.4023 28.8413 13.8966 29.3351 14.4968 29.3351ZM20.2517 29.3351C20.8519 29.3351 21.3462 28.8413 21.3462 28.2417V22.4929C21.3462 21.8933 20.8519 21.3995 20.2517 21.3995C19.6515 21.3995 19.1572 21.8933 19.1572 22.4929V28.2417C19.1572 28.8413 19.6515 29.3351 20.2517 29.3351Z" fill="#999999"/>
</svg>
