<svg width="31" height="26" viewBox="0 0 31 26" fill="none" xmlns="http://www.w3.org/2000/svg">
<path fill-rule="evenodd" clip-rule="evenodd" d="M23.5 6H1.5C0.671938 6.00088 0.000881855 6.67194 0 7.5V24.5C0.000881855 25.3281 0.671938 25.9991 1.5 26H23.5C24.3281 25.9991 24.9991 25.3281 25 24.5V7.5C24.9991 6.67194 24.3281 6.00088 23.5 6ZM7.5 11H3.5C3.22386 11 3 10.7761 3 10.5C3 10.2239 3.22386 10 3.5 10H7.5C7.77614 10 8 10.2239 8 10.5C8 10.7761 7.77614 11 7.5 11ZM9.5 10C9.22386 10 9 10.2239 9 10.5C9 10.7761 9.22386 11 9.5 11H13.5C13.7761 11 14 10.7761 14 10.5C14 10.2239 13.7761 10 13.5 10H9.5ZM14.5 22C13.1193 22 12 20.8807 12 19.5C12 18.1193 13.1193 17 14.5 17C15.8807 17 17 18.1193 17 19.5C17 20.8807 15.8807 22 14.5 22ZM17.2437 21.6489C17.6235 21.8763 18.0574 21.9976 18.5 22C19.8807 22 21 20.8807 21 19.5C21 18.1193 19.8807 17 18.5 17C18.0574 17.0024 17.6235 17.1236 17.2437 17.351C18.2522 18.6062 18.2522 20.3937 17.2437 21.6489Z" fill="#D84727"/>
<path d="M30 7C30 10.3137 27.3137 13 24 13C20.6863 13 18 10.3137 18 7C18 3.68629 20.6863 1 24 1C27.3137 1 30 3.68629 30 7Z" fill="#D84727"/>
<path fill-rule="evenodd" clip-rule="evenodd" d="M24 1.5C20.9624 1.5 18.5 3.96243 18.5 7C18.5 10.0376 20.9624 12.5 24 12.5C27.0376 12.5 29.5 10.0376 29.5 7C29.5 3.96243 27.0376 1.5 24 1.5ZM17.5 7C17.5 3.41015 20.4101 0.5 24 0.5C27.5899 0.5 30.5 3.41015 30.5 7C30.5 10.5899 27.5899 13.5 24 13.5C20.4101 13.5 17.5 10.5899 17.5 7Z" fill="white"/>
<path fill-rule="evenodd" clip-rule="evenodd" d="M27.3 4.6C27.5209 4.76568 27.5657 5.07909 27.4 5.3L24.4 9.3C24.2343 9.52091 23.9209 9.56568 23.7 9.4L21.7 7.9C21.4791 7.73431 21.4343 7.42091 21.6 7.2C21.7657 6.97908 22.0791 6.93431 22.3 7.1L23.9 8.3L26.6 4.7C26.7657 4.47909 27.0791 4.43431 27.3 4.6Z" fill="white"/>
</svg>
